<?xml version="1.0" encoding="UTF-8" standalone="no"?>
<!DOCTYPE svg PUBLIC "-//W3C//DTD SVG 1.1//EN"
 "http://www.w3.org/Graphics/SVG/1.1/DTD/svg11.dtd">
<!-- Generated by graphviz version 2.38.0 (20140413.2041)
 -->
<!-- Title: G Pages: 1 -->
<svg width="588pt" height="1264pt"
     viewBox="0.00 0.00 588.00 1264.00" xmlns="http://www.w3.org/2000/svg">
<g id="graph0" class="graph" transform="scale(1 1) rotate(0) translate(4 1260)">
<title>G</title>
<polygon fill="white" stroke="none" points="-4,4 -4,-1260 584,-1260 584,4 -4,4"/>
<g id="clust1" class="cluster"><title>cluster_Global</title>
<path fill="none" stroke="gray" d="M20,-8C20,-8 560,-8 560,-8 566,-8 572,-14 572,-20 572,-20 572,-1236 572,-1236 572,-1242 566,-1248 560,-1248 560,-1248 20,-1248 20,-1248 14,-1248 8,-1242 8,-1236 8,-1236 8,-20 8,-20 8,-14 14,-8 20,-8"/>
<text text-anchor="middle" x="290" y="-1235.2" font-family="Times,serif" font-size="11.00" fill="gray">Global</text>
</g>
<g id="clust2" class="cluster"><title>cluster_\phpstream</title>
<path fill="none" stroke="gray" d="M28,-16C28,-16 552,-16 552,-16 558,-16 564,-22 564,-28 564,-28 564,-1208 564,-1208 564,-1214 558,-1220 552,-1220 552,-1220 28,-1220 28,-1220 22,-1220 16,-1214 16,-1208 16,-1208 16,-28 16,-28 16,-22 22,-16 28,-16"/>
<text text-anchor="middle" x="290" y="-1207.2" font-family="Times,serif" font-size="11.00" fill="gray">phpstream</text>
</g>
<g id="clust3" class="cluster"><title>cluster_\phpstream\collectors</title>
<path fill="none" stroke="gray" d="M218,-688C218,-688 544,-688 544,-688 550,-688 556,-694 556,-700 556,-700 556,-1180 556,-1180 556,-1186 550,-1192 544,-1192 544,-1192 218,-1192 218,-1192 212,-1192 206,-1186 206,-1180 206,-1180 206,-700 206,-700 206,-694 212,-688 218,-688"/>
<text text-anchor="middle" x="381" y="-1179.2" font-family="Times,serif" font-size="11.00" fill="gray">collectors</text>
</g>
<g id="clust4" class="cluster"><title>cluster_\phpstream\operators</title>
<path fill="none" stroke="gray" d="M221,-392C221,-392 534,-392 534,-392 540,-392 546,-398 546,-404 546,-404 546,-668 546,-668 546,-674 540,-680 534,-680 534,-680 221,-680 221,-680 215,-680 209,-674 209,-668 209,-668 209,-404 209,-404 209,-398 215,-392 221,-392"/>
<text text-anchor="middle" x="377.5" y="-667.2" font-family="Times,serif" font-size="11.00" fill="gray">operators</text>
</g>
<g id="clust5" class="cluster"><title>cluster_\phpstream\functions</title>
<path fill="none" stroke="gray" d="M434.5,-258C434.5,-258 530.5,-258 530.5,-258 536.5,-258 542.5,-264 542.5,-270 542.5,-270 542.5,-372 542.5,-372 542.5,-378 536.5,-384 530.5,-384 530.5,-384 434.5,-384 434.5,-384 428.5,-384 422.5,-378 422.5,-372 422.5,-372 422.5,-270 422.5,-270 422.5,-264 428.5,-258 434.5,-258"/>
<text text-anchor="middle" x="482.5" y="-371.2" font-family="Times,serif" font-size="11.00" fill="gray">functions</text>
</g>
<g id="clust6" class="cluster"><title>cluster_\phpstream\util</title>
<path fill="none" stroke="gray" d="M241.5,-70C241.5,-70 520.5,-70 520.5,-70 526.5,-70 532.5,-76 532.5,-82 532.5,-82 532.5,-238 532.5,-238 532.5,-244 526.5,-250 520.5,-250 520.5,-250 241.5,-250 241.5,-250 235.5,-250 229.5,-244 229.5,-238 229.5,-238 229.5,-82 229.5,-82 229.5,-76 235.5,-70 241.5,-70"/>
<text text-anchor="middle" x="381" y="-237.2" font-family="Times,serif" font-size="11.00" fill="gray">util</text>
</g>
<!-- \\phpstream\\collectors\\ReduceCollector -->
<g id="node1" class="node"><title>\\phpstream\\collectors\\ReduceCollector</title>
<polygon fill="none" stroke="black" points="541.5,-1164 423.5,-1164 423.5,-1128 541.5,-1128 541.5,-1164"/>
<text text-anchor="middle" x="482.5" y="-1143.2" font-family="Courier,monospace" font-size="11.00">ReduceCollector</text>
</g>
<!-- \\phpstream\\collectors\\AbstractCollector -->
<g id="node6" class="node"><title>\\phpstream\\collectors\\AbstractCollector</title>
<polygon fill="none" stroke="black" points="345,-948 214,-948 214,-912 345,-912 345,-948"/>
<text text-anchor="start" x="245.5" y="-933.2" font-family="Courier,monospace" font-size="11.00">«abstract»</text>
<text text-anchor="start" x="222" y="-921.2" font-family="Courier,monospace" font-size="11.00">AbstractCollector</text>
</g>
<!-- \\phpstream\\collectors\\ReduceCollector&#45;&gt;\\phpstream\\collectors\\AbstractCollector -->
<g id="edge1" class="edge"><title>\\phpstream\\collectors\\ReduceCollector&#45;&gt;\\phpstream\\collectors\\AbstractCollector</title>
<path fill="none" stroke="black" d="M430.669,-1127.95C425.835,-1125.3 421.184,-1122.32 417,-1119 359.473,-1073.34 314.919,-997.455 293.849,-957.131"/>
<polygon fill="none" stroke="black" points="296.92,-955.45 289.24,-948.152 290.693,-958.647 296.92,-955.45"/>
</g>
<!-- \\phpstream\\collectors\\MaxCollector -->
<g id="node2" class="node"><title>\\phpstream\\collectors\\MaxCollector</title>
<polygon fill="none" stroke="black" points="531.5,-1110 433.5,-1110 433.5,-1074 531.5,-1074 531.5,-1110"/>
<text text-anchor="middle" x="482.5" y="-1089.2" font-family="Courier,monospace" font-size="11.00">MaxCollector</text>
</g>
<!-- \\phpstream\\collectors\\MaxCollector&#45;&gt;\\phpstream\\collectors\\AbstractCollector -->
<g id="edge2" class="edge"><title>\\phpstream\\collectors\\MaxCollector&#45;&gt;\\phpstream\\collectors\\AbstractCollector</title>
<path fill="none" stroke="black" d="M433.23,-1074.23C427.587,-1071.45 422.05,-1068.37 417,-1065 370.616,-1034.07 326.569,-985.92 301.609,-956.262"/>
<polygon fill="none" stroke="black" points="304.173,-953.87 295.089,-948.416 298.789,-958.344 304.173,-953.87"/>
</g>
<!-- \\phpstream\\collectors\\MinCollector -->
<g id="node3" class="node"><title>\\phpstream\\collectors\\MinCollector</title>
<polygon fill="none" stroke="black" points="531.5,-1056 433.5,-1056 433.5,-1020 531.5,-1020 531.5,-1056"/>
<text text-anchor="middle" x="482.5" y="-1035.2" font-family="Courier,monospace" font-size="11.00">MinCollector</text>
</g>
<!-- \\phpstream\\collectors\\MinCollector&#45;&gt;\\phpstream\\collectors\\AbstractCollector -->
<g id="edge3" class="edge"><title>\\phpstream\\collectors\\MinCollector&#45;&gt;\\phpstream\\collectors\\AbstractCollector</title>
<path fill="none" stroke="black" d="M436.029,-1019.9C429.576,-1017.06 423.073,-1014.05 417,-1011 382.165,-993.48 344.135,-970.58 317.085,-953.601"/>
<polygon fill="none" stroke="black" points="318.677,-950.467 308.353,-948.086 314.939,-956.385 318.677,-950.467"/>
</g>
<!-- \\phpstream\\collectors\\ListCollector -->
<g id="node4" class="node"><title>\\phpstream\\collectors\\ListCollector</title>
<polygon fill="none" stroke="black" points="534.5,-1002 430.5,-1002 430.5,-966 534.5,-966 534.5,-1002"/>
<text text-anchor="middle" x="482.5" y="-981.2" font-family="Courier,monospace" font-size="11.00">ListCollector</text>
</g>
<!-- \\phpstream\\collectors\\ListCollector&#45;&gt;\\phpstream\\collectors\\AbstractCollector -->
<g id="edge4" class="edge"><title>\\phpstream\\collectors\\ListCollector&#45;&gt;\\phpstream\\collectors\\AbstractCollector</title>
<path fill="none" stroke="black" d="M430.259,-970.234C407.464,-964.11 380.177,-956.779 355.177,-950.062"/>
<polygon fill="none" stroke="black" points="355.924,-946.639 345.358,-947.424 354.107,-953.399 355.924,-946.639"/>
</g>
<!-- \\phpstream\\collectors\\FirstCollector -->
<g id="node5" class="node"><title>\\phpstream\\collectors\\FirstCollector</title>
<polygon fill="none" stroke="black" points="538,-948 427,-948 427,-912 538,-912 538,-948"/>
<text text-anchor="middle" x="482.5" y="-927.2" font-family="Courier,monospace" font-size="11.00">FirstCollector</text>
</g>
<!-- \\phpstream\\collectors\\FirstCollector&#45;&gt;\\phpstream\\collectors\\AbstractCollector -->
<g id="edge5" class="edge"><title>\\phpstream\\collectors\\FirstCollector&#45;&gt;\\phpstream\\collectors\\AbstractCollector</title>
<path fill="none" stroke="black" d="M426.841,-930C404.768,-930 378.941,-930 355.179,-930"/>
<polygon fill="none" stroke="black" points="355.139,-926.5 345.139,-930 355.139,-933.5 355.139,-926.5"/>
</g>
<!-- \\phpstream\\StreamCollector -->
<g id="node25" class="node"><title>\\phpstream\\StreamCollector</title>
<polygon fill="none" stroke="black" points="142,-948 24,-948 24,-912 142,-912 142,-948"/>
<text text-anchor="middle" x="83" y="-927.2" font-family="Courier,monospace" font-size="11.00">StreamCollector</text>
</g>
<!-- \\phpstream\\collectors\\AbstractCollector&#45;&gt;\\phpstream\\StreamCollector -->
<g id="edge6" class="edge"><title>\\phpstream\\collectors\\AbstractCollector&#45;&gt;\\phpstream\\StreamCollector</title>
<path fill="none" stroke="black" stroke-dasharray="1,5" d="M213.734,-930C194.066,-930 172.396,-930 152.492,-930"/>
<polygon fill="none" stroke="black" points="152.264,-926.5 142.264,-930 152.264,-933.5 152.264,-926.5"/>
</g>
<!-- \\phpstream\\collectors\\AnyCollector -->
<g id="node7" class="node"><title>\\phpstream\\collectors\\AnyCollector</title>
<polygon fill="none" stroke="black" points="531.5,-894 433.5,-894 433.5,-858 531.5,-858 531.5,-894"/>
<text text-anchor="middle" x="482.5" y="-873.2" font-family="Courier,monospace" font-size="11.00">AnyCollector</text>
</g>
<!-- \\phpstream\\collectors\\AnyCollector&#45;&gt;\\phpstream\\collectors\\AbstractCollector -->
<g id="edge9" class="edge"><title>\\phpstream\\collectors\\AnyCollector&#45;&gt;\\phpstream\\collectors\\AbstractCollector</title>
<path fill="none" stroke="black" d="M433.355,-888.934C409.978,-895.215 381.357,-902.904 355.228,-909.924"/>
<polygon fill="none" stroke="black" points="354.102,-906.602 345.352,-912.577 355.918,-913.362 354.102,-906.602"/>
</g>
<!-- \\phpstream\\collectors\\DistinctCollector -->
<g id="node8" class="node"><title>\\phpstream\\collectors\\DistinctCollector</title>
<polygon fill="none" stroke="black" points="548,-840 417,-840 417,-804 548,-804 548,-840"/>
<text text-anchor="middle" x="482.5" y="-819.2" font-family="Courier,monospace" font-size="11.00">DistinctCollector</text>
</g>
<!-- \\phpstream\\collectors\\DistinctCollector&#45;&gt;\\phpstream\\collectors\\AbstractCollector -->
<g id="edge11" class="edge"><title>\\phpstream\\collectors\\DistinctCollector&#45;&gt;\\phpstream\\collectors\\AbstractCollector</title>
<path fill="none" stroke="black" d="M436.029,-840.096C429.576,-842.935 423.073,-845.946 417,-849 382.165,-866.52 344.135,-889.42 317.085,-906.399"/>
<polygon fill="none" stroke="black" points="314.939,-903.615 308.353,-911.914 318.677,-909.533 314.939,-903.615"/>
</g>
<!-- \\phpstream\\collectors\\MapCollector -->
<g id="node9" class="node"><title>\\phpstream\\collectors\\MapCollector</title>
<polygon fill="none" stroke="black" points="531.5,-786 433.5,-786 433.5,-750 531.5,-750 531.5,-786"/>
<text text-anchor="middle" x="482.5" y="-765.2" font-family="Courier,monospace" font-size="11.00">MapCollector</text>
</g>
<!-- \\phpstream\\collectors\\MapCollector&#45;&gt;\\phpstream\\collectors\\AbstractCollector -->
<g id="edge14" class="edge"><title>\\phpstream\\collectors\\MapCollector&#45;&gt;\\phpstream\\collectors\\AbstractCollector</title>
<path fill="none" stroke="black" d="M433.23,-785.771C427.587,-788.55 422.05,-791.632 417,-795 370.616,-825.933 326.569,-874.08 301.609,-903.738"/>
<polygon fill="none" stroke="black" points="298.789,-901.656 295.089,-911.584 304.173,-906.13 298.789,-901.656"/>
</g>
<!-- \\phpstream\\collectors\\SumCollector -->
<g id="node10" class="node"><title>\\phpstream\\collectors\\SumCollector</title>
<polygon fill="none" stroke="black" points="531.5,-732 433.5,-732 433.5,-696 531.5,-696 531.5,-732"/>
<text text-anchor="middle" x="482.5" y="-711.2" font-family="Courier,monospace" font-size="11.00">SumCollector</text>
</g>
<!-- \\phpstream\\collectors\\SumCollector&#45;&gt;\\phpstream\\collectors\\AbstractCollector -->
<g id="edge16" class="edge"><title>\\phpstream\\collectors\\SumCollector&#45;&gt;\\phpstream\\collectors\\AbstractCollector</title>
<path fill="none" stroke="black" d="M433.322,-730.635C427.541,-733.632 421.944,-737.076 417,-741 359.473,-786.658 314.919,-862.545 293.849,-902.869"/>
<polygon fill="none" stroke="black" points="290.693,-901.353 289.24,-911.848 296.92,-904.55 290.693,-901.353"/>
</g>
<!-- \\phpstream\\operators\\SkipOperator -->
<g id="node11" class="node"><title>\\phpstream\\operators\\SkipOperator</title>
<polygon fill="none" stroke="black" points="531.5,-652 433.5,-652 433.5,-616 531.5,-616 531.5,-652"/>
<text text-anchor="middle" x="482.5" y="-631.2" font-family="Courier,monospace" font-size="11.00">SkipOperator</text>
</g>
<!-- \\phpstream\\operators\\AbstractOperator -->
<g id="node16" class="node"><title>\\phpstream\\operators\\AbstractOperator</title>
<polygon fill="none" stroke="black" points="342,-544 217,-544 217,-508 342,-508 342,-544"/>
<text text-anchor="start" x="245.5" y="-529.2" font-family="Courier,monospace" font-size="11.00">«abstract»</text>
<text text-anchor="start" x="225" y="-517.2" font-family="Courier,monospace" font-size="11.00">AbstractOperator</text>
</g>
<!-- \\phpstream\\operators\\SkipOperator&#45;&gt;\\phpstream\\operators\\AbstractOperator -->
<g id="edge7" class="edge"><title>\\phpstream\\operators\\SkipOperator&#45;&gt;\\phpstream\\operators\\AbstractOperator</title>
<path fill="none" stroke="black" d="M436.029,-615.904C429.576,-613.065 423.073,-610.054 417,-607 382.165,-589.48 344.135,-566.58 317.085,-549.601"/>
<polygon fill="none" stroke="black" points="318.677,-546.467 308.353,-544.086 314.939,-552.385 318.677,-546.467"/>
</g>
<!-- \\phpstream\\operators\\MapOperator -->
<g id="node12" class="node"><title>\\phpstream\\operators\\MapOperator</title>
<polygon fill="none" stroke="black" points="528,-598 437,-598 437,-562 528,-562 528,-598"/>
<text text-anchor="middle" x="482.5" y="-577.2" font-family="Courier,monospace" font-size="11.00">MapOperator</text>
</g>
<!-- \\phpstream\\operators\\MapOperator&#45;&gt;\\phpstream\\operators\\AbstractOperator -->
<g id="edge8" class="edge"><title>\\phpstream\\operators\\MapOperator&#45;&gt;\\phpstream\\operators\\AbstractOperator</title>
<path fill="none" stroke="black" d="M436.892,-568.016C411.958,-561.317 380.295,-552.811 351.989,-545.206"/>
<polygon fill="none" stroke="black" points="352.7,-541.773 342.134,-542.558 350.884,-548.533 352.7,-541.773"/>
</g>
<!-- \\phpstream\\operators\\PeekOperator -->
<g id="node13" class="node"><title>\\phpstream\\operators\\PeekOperator</title>
<polygon fill="none" stroke="black" points="531.5,-544 433.5,-544 433.5,-508 531.5,-508 531.5,-544"/>
<text text-anchor="middle" x="482.5" y="-523.2" font-family="Courier,monospace" font-size="11.00">PeekOperator</text>
</g>
<!-- \\phpstream\\operators\\PeekOperator&#45;&gt;\\phpstream\\operators\\AbstractOperator -->
<g id="edge10" class="edge"><title>\\phpstream\\operators\\PeekOperator&#45;&gt;\\phpstream\\operators\\AbstractOperator</title>
<path fill="none" stroke="black" d="M433.355,-526C409.154,-526 379.333,-526 352.475,-526"/>
<polygon fill="none" stroke="black" points="352.345,-522.5 342.345,-526 352.345,-529.5 352.345,-522.5"/>
</g>
<!-- \\phpstream\\operators\\LimitOperator -->
<g id="node14" class="node"><title>\\phpstream\\operators\\LimitOperator</title>
<polygon fill="none" stroke="black" points="534.5,-490 430.5,-490 430.5,-454 534.5,-454 534.5,-490"/>
<text text-anchor="middle" x="482.5" y="-469.2" font-family="Courier,monospace" font-size="11.00">LimitOperator</text>
</g>
<!-- \\phpstream\\operators\\LimitOperator&#45;&gt;\\phpstream\\operators\\AbstractOperator -->
<g id="edge15" class="edge"><title>\\phpstream\\operators\\LimitOperator&#45;&gt;\\phpstream\\operators\\AbstractOperator</title>
<path fill="none" stroke="black" d="M430.259,-485.766C406.435,-492.167 377.704,-499.885 351.806,-506.843"/>
<polygon fill="none" stroke="black" points="350.784,-503.494 342.035,-509.468 352.6,-510.254 350.784,-503.494"/>
</g>
<!-- \\phpstream\\operators\\FilterOperator -->
<g id="node15" class="node"><title>\\phpstream\\operators\\FilterOperator</title>
<polygon fill="none" stroke="black" points="538,-436 427,-436 427,-400 538,-400 538,-436"/>
<text text-anchor="middle" x="482.5" y="-415.2" font-family="Courier,monospace" font-size="11.00">FilterOperator</text>
</g>
<!-- \\phpstream\\operators\\FilterOperator&#45;&gt;\\phpstream\\operators\\AbstractOperator -->
<g id="edge17" class="edge"><title>\\phpstream\\operators\\FilterOperator&#45;&gt;\\phpstream\\operators\\AbstractOperator</title>
<path fill="none" stroke="black" d="M436.029,-436.096C429.576,-438.935 423.073,-441.946 417,-445 382.165,-462.52 344.135,-485.42 317.085,-502.399"/>
<polygon fill="none" stroke="black" points="314.939,-499.615 308.353,-507.914 318.677,-505.533 314.939,-499.615"/>
</g>
<!-- \\phpstream\\StreamOperator -->
<g id="node24" class="node"><title>\\phpstream\\StreamOperator</title>
<polygon fill="none" stroke="black" points="138.5,-544 27.5,-544 27.5,-508 138.5,-508 138.5,-544"/>
<text text-anchor="middle" x="83" y="-523.2" font-family="Courier,monospace" font-size="11.00">StreamOperator</text>
</g>
<!-- \\phpstream\\operators\\AbstractOperator&#45;&gt;\\phpstream\\StreamOperator -->
<g id="edge18" class="edge"><title>\\phpstream\\operators\\AbstractOperator&#45;&gt;\\phpstream\\StreamOperator</title>
<path fill="none" stroke="black" stroke-dasharray="1,5" d="M216.959,-526C195.245,-526 170.774,-526 148.799,-526"/>
<polygon fill="none" stroke="black" points="148.567,-522.5 138.567,-526 148.567,-529.5 148.567,-522.5"/>
</g>
<!-- \\phpstream\\functions\\UnaryFunction -->
<g id="node17" class="node"><title>\\phpstream\\functions\\UnaryFunction</title>
<polygon fill="none" stroke="black" points="534.5,-356 430.5,-356 430.5,-320 534.5,-320 534.5,-356"/>
<text text-anchor="middle" x="482.5" y="-335.2" font-family="Courier,monospace" font-size="11.00">UnaryFunction</text>
</g>
<!-- \\phpstream\\functions\\BiFunction -->
<g id="node18" class="node"><title>\\phpstream\\functions\\BiFunction</title>
<polygon fill="none" stroke="black" points="524.5,-302 440.5,-302 440.5,-266 524.5,-266 524.5,-302"/>
<text text-anchor="middle" x="482.5" y="-281.2" font-family="Courier,monospace" font-size="11.00">BiFunction</text>
</g>
<!-- \\phpstream\\util\\Optional -->
<g id="node19" class="node"><title>\\phpstream\\util\\Optional</title>
<polygon fill="none" stroke="black" points="321.5,-195 237.5,-195 237.5,-159 321.5,-159 321.5,-195"/>
<text text-anchor="start" x="245.5" y="-180.2" font-family="Courier,monospace" font-size="11.00">«abstract»</text>
<text text-anchor="start" x="252" y="-168.2" font-family="Courier,monospace" font-size="11.00">Optional</text>
</g>
<!-- \\phpstream\\util\\Absent -->
<g id="node20" class="node"><title>\\phpstream\\util\\Absent</title>
<polygon fill="none" stroke="black" points="511,-222 454,-222 454,-186 511,-186 511,-222"/>
<text text-anchor="middle" x="482.5" y="-201.2" font-family="Courier,monospace" font-size="11.00">Absent</text>
</g>
<!-- \\phpstream\\util\\Absent&#45;&gt;\\phpstream\\util\\Optional -->
<g id="edge12" class="edge"><title>\\phpstream\\util\\Absent&#45;&gt;\\phpstream\\util\\Optional</title>
<path fill="none" stroke="black" d="M453.973,-200.302C422.587,-196.086 370.6,-189.103 331.706,-183.878"/>
<polygon fill="none" stroke="black" points="331.994,-180.386 321.617,-182.523 331.062,-187.323 331.994,-180.386"/>
</g>
<!-- \\phpstream\\util\\Present -->
<g id="node21" class="node"><title>\\phpstream\\util\\Present</title>
<polygon fill="none" stroke="black" points="514.5,-168 450.5,-168 450.5,-132 514.5,-132 514.5,-168"/>
<text text-anchor="middle" x="482.5" y="-147.2" font-family="Courier,monospace" font-size="11.00">Present</text>
</g>
<!-- \\phpstream\\util\\Present&#45;&gt;\\phpstream\\util\\Optional -->
<g id="edge13" class="edge"><title>\\phpstream\\util\\Present&#45;&gt;\\phpstream\\util\\Optional</title>
<path fill="none" stroke="black" d="M450.094,-154.219C418.505,-158.462 369.264,-165.077 331.962,-170.087"/>
<polygon fill="none" stroke="black" points="331.227,-166.654 321.782,-171.455 332.159,-173.592 331.227,-166.654"/>
</g>
<!-- \\phpstream\\util\\Comparator -->
<g id="node22" class="node"><title>\\phpstream\\util\\Comparator</title>
<polygon fill="none" stroke="black" points="524.5,-114 440.5,-114 440.5,-78 524.5,-78 524.5,-114"/>
<text text-anchor="middle" x="482.5" y="-93.2" font-family="Courier,monospace" font-size="11.00">Comparator</text>
</g>
<!-- \\phpstream\\Stream -->
<g id="node23" class="node"><title>\\phpstream\\Stream</title>
<polygon fill="none" stroke="black" points="511,-60 454,-60 454,-24 511,-24 511,-60"/>
<text text-anchor="middle" x="482.5" y="-39.2" font-family="Courier,monospace" font-size="11.00">Stream</text>
</g>
</g>
</svg>
